<mxfile host="app.diagrams.net" modified="2021-01-07T14:19:07.461Z" agent="5.0 (Windows NT 10.0; Win64; x64) AppleWebKit/537.36 (KHTML, like Gecko) Chrome/87.0.4280.88 Safari/537.36" etag="kBpexdQ0JRek3BtC8ohA" version="14.1.8" type="github">
  <diagram name="Page-1" id="9f46799a-70d6-7492-0946-bef42562c5a5">
    <mxGraphModel dx="1998" dy="922" grid="1" gridSize="10" guides="1" tooltips="1" connect="1" arrows="1" fold="1" page="1" pageScale="1" pageWidth="1100" pageHeight="850" background="#ffffff" math="0" shadow="0">
      <root>
        <mxCell id="0" />
        <mxCell id="1" parent="0" />
        <mxCell id="zsuysDpaAxi5N6dCsfD_-26" style="edgeStyle=orthogonalEdgeStyle;rounded=0;orthogonalLoop=1;jettySize=auto;html=1;entryX=0.513;entryY=0.005;entryDx=0;entryDy=0;entryPerimeter=0;" edge="1" parent="1" source="zsuysDpaAxi5N6dCsfD_-1" target="zsuysDpaAxi5N6dCsfD_-3">
          <mxGeometry relative="1" as="geometry" />
        </mxCell>
        <mxCell id="zsuysDpaAxi5N6dCsfD_-1" value="N - array" style="shape=document;whiteSpace=wrap;html=1;boundedLbl=1;" vertex="1" parent="1">
          <mxGeometry x="380" y="40" width="120" height="80" as="geometry" />
        </mxCell>
        <mxCell id="zsuysDpaAxi5N6dCsfD_-3" value="BubbleSort" style="swimlane;startSize=23;" vertex="1" parent="1">
          <mxGeometry x="-380" y="210" width="540" height="410" as="geometry" />
        </mxCell>
        <mxCell id="zsuysDpaAxi5N6dCsfD_-4" value="" style="ellipse;html=1;shape=endState;fillColor=#000000;strokeColor=#ff0000;" vertex="1" parent="zsuysDpaAxi5N6dCsfD_-3">
          <mxGeometry x="85" y="370" width="30" height="30" as="geometry" />
        </mxCell>
        <mxCell id="zsuysDpaAxi5N6dCsfD_-14" style="edgeStyle=orthogonalEdgeStyle;rounded=0;orthogonalLoop=1;jettySize=auto;html=1;" edge="1" parent="zsuysDpaAxi5N6dCsfD_-3" source="zsuysDpaAxi5N6dCsfD_-5" target="zsuysDpaAxi5N6dCsfD_-6">
          <mxGeometry relative="1" as="geometry" />
        </mxCell>
        <mxCell id="zsuysDpaAxi5N6dCsfD_-5" value="" style="ellipse;html=1;shape=endState;fillColor=#000000;strokeColor=#ff0000;" vertex="1" parent="zsuysDpaAxi5N6dCsfD_-3">
          <mxGeometry x="85" y="30" width="30" height="30" as="geometry" />
        </mxCell>
        <mxCell id="zsuysDpaAxi5N6dCsfD_-13" style="edgeStyle=orthogonalEdgeStyle;rounded=0;orthogonalLoop=1;jettySize=auto;html=1;" edge="1" parent="zsuysDpaAxi5N6dCsfD_-3" source="zsuysDpaAxi5N6dCsfD_-6" target="zsuysDpaAxi5N6dCsfD_-7">
          <mxGeometry relative="1" as="geometry" />
        </mxCell>
        <mxCell id="zsuysDpaAxi5N6dCsfD_-6" value="N - array&lt;br&gt;i = 0" style="rounded=0;whiteSpace=wrap;html=1;" vertex="1" parent="zsuysDpaAxi5N6dCsfD_-3">
          <mxGeometry x="40" y="80" width="120" height="60" as="geometry" />
        </mxCell>
        <mxCell id="zsuysDpaAxi5N6dCsfD_-17" value="Yes" style="edgeStyle=orthogonalEdgeStyle;rounded=0;orthogonalLoop=1;jettySize=auto;html=1;entryX=0.5;entryY=0;entryDx=0;entryDy=0;" edge="1" parent="zsuysDpaAxi5N6dCsfD_-3" source="zsuysDpaAxi5N6dCsfD_-7" target="zsuysDpaAxi5N6dCsfD_-10">
          <mxGeometry relative="1" as="geometry" />
        </mxCell>
        <mxCell id="zsuysDpaAxi5N6dCsfD_-19" value="No" style="edgeStyle=orthogonalEdgeStyle;rounded=0;orthogonalLoop=1;jettySize=auto;html=1;entryX=0;entryY=0.5;entryDx=0;entryDy=0;" edge="1" parent="zsuysDpaAxi5N6dCsfD_-3" source="zsuysDpaAxi5N6dCsfD_-7" target="zsuysDpaAxi5N6dCsfD_-16">
          <mxGeometry relative="1" as="geometry" />
        </mxCell>
        <mxCell id="zsuysDpaAxi5N6dCsfD_-7" value="i = (lengh of N) - 1?" style="rhombus;whiteSpace=wrap;html=1;" vertex="1" parent="zsuysDpaAxi5N6dCsfD_-3">
          <mxGeometry x="30" y="165" width="140" height="80" as="geometry" />
        </mxCell>
        <mxCell id="zsuysDpaAxi5N6dCsfD_-12" style="edgeStyle=orthogonalEdgeStyle;rounded=0;orthogonalLoop=1;jettySize=auto;html=1;entryX=0.5;entryY=0;entryDx=0;entryDy=0;" edge="1" parent="zsuysDpaAxi5N6dCsfD_-3" source="zsuysDpaAxi5N6dCsfD_-10" target="zsuysDpaAxi5N6dCsfD_-4">
          <mxGeometry relative="1" as="geometry" />
        </mxCell>
        <mxCell id="zsuysDpaAxi5N6dCsfD_-10" value="sorted N array" style="rounded=0;whiteSpace=wrap;html=1;" vertex="1" parent="zsuysDpaAxi5N6dCsfD_-3">
          <mxGeometry x="40" y="290" width="120" height="60" as="geometry" />
        </mxCell>
        <mxCell id="zsuysDpaAxi5N6dCsfD_-20" value="Yes" style="edgeStyle=orthogonalEdgeStyle;rounded=0;orthogonalLoop=1;jettySize=auto;html=1;entryX=0.5;entryY=0;entryDx=0;entryDy=0;" edge="1" parent="zsuysDpaAxi5N6dCsfD_-3" source="zsuysDpaAxi5N6dCsfD_-16" target="zsuysDpaAxi5N6dCsfD_-18">
          <mxGeometry relative="1" as="geometry" />
        </mxCell>
        <mxCell id="zsuysDpaAxi5N6dCsfD_-23" value="No" style="edgeStyle=orthogonalEdgeStyle;rounded=0;orthogonalLoop=1;jettySize=auto;html=1;entryX=0;entryY=0.5;entryDx=0;entryDy=0;" edge="1" parent="zsuysDpaAxi5N6dCsfD_-3" source="zsuysDpaAxi5N6dCsfD_-16" target="zsuysDpaAxi5N6dCsfD_-22">
          <mxGeometry relative="1" as="geometry" />
        </mxCell>
        <mxCell id="zsuysDpaAxi5N6dCsfD_-16" value="i element &amp;gt;&amp;nbsp;&lt;br&gt;i + 1 element&lt;br&gt;?" style="rhombus;whiteSpace=wrap;html=1;" vertex="1" parent="zsuysDpaAxi5N6dCsfD_-3">
          <mxGeometry x="200" y="170" width="150" height="75" as="geometry" />
        </mxCell>
        <mxCell id="zsuysDpaAxi5N6dCsfD_-25" style="edgeStyle=orthogonalEdgeStyle;rounded=0;orthogonalLoop=1;jettySize=auto;html=1;entryX=1;entryY=1;entryDx=0;entryDy=0;" edge="1" parent="zsuysDpaAxi5N6dCsfD_-3" source="zsuysDpaAxi5N6dCsfD_-18" target="zsuysDpaAxi5N6dCsfD_-7">
          <mxGeometry relative="1" as="geometry">
            <Array as="points">
              <mxPoint x="190" y="310" />
              <mxPoint x="190" y="225" />
            </Array>
          </mxGeometry>
        </mxCell>
        <mxCell id="zsuysDpaAxi5N6dCsfD_-18" value="swap i and i + 1&lt;br&gt;i = 0" style="rounded=0;whiteSpace=wrap;html=1;" vertex="1" parent="zsuysDpaAxi5N6dCsfD_-3">
          <mxGeometry x="215" y="280" width="120" height="60" as="geometry" />
        </mxCell>
        <mxCell id="zsuysDpaAxi5N6dCsfD_-24" style="edgeStyle=orthogonalEdgeStyle;rounded=0;orthogonalLoop=1;jettySize=auto;html=1;entryX=1;entryY=1;entryDx=0;entryDy=0;" edge="1" parent="zsuysDpaAxi5N6dCsfD_-3" source="zsuysDpaAxi5N6dCsfD_-22" target="zsuysDpaAxi5N6dCsfD_-7">
          <mxGeometry relative="1" as="geometry">
            <Array as="points">
              <mxPoint x="450" y="360" />
              <mxPoint x="190" y="360" />
              <mxPoint x="190" y="225" />
            </Array>
          </mxGeometry>
        </mxCell>
        <mxCell id="zsuysDpaAxi5N6dCsfD_-22" value="i ++" style="rounded=0;whiteSpace=wrap;html=1;" vertex="1" parent="zsuysDpaAxi5N6dCsfD_-3">
          <mxGeometry x="390" y="175" width="120" height="60" as="geometry" />
        </mxCell>
        <mxCell id="zsuysDpaAxi5N6dCsfD_-51" style="edgeStyle=orthogonalEdgeStyle;rounded=0;orthogonalLoop=1;jettySize=auto;html=1;" edge="1" parent="1" source="zsuysDpaAxi5N6dCsfD_-28">
          <mxGeometry relative="1" as="geometry">
            <mxPoint x="727" y="290" as="targetPoint" />
          </mxGeometry>
        </mxCell>
        <mxCell id="zsuysDpaAxi5N6dCsfD_-28" value="N sequence" style="rounded=0;whiteSpace=wrap;html=1;" vertex="1" parent="1">
          <mxGeometry x="380" y="190" width="120" height="60" as="geometry" />
        </mxCell>
        <mxCell id="zsuysDpaAxi5N6dCsfD_-53" style="edgeStyle=orthogonalEdgeStyle;rounded=0;orthogonalLoop=1;jettySize=auto;html=1;entryX=1;entryY=0.5;entryDx=0;entryDy=0;" edge="1" parent="1" source="zsuysDpaAxi5N6dCsfD_-30" target="zsuysDpaAxi5N6dCsfD_-52">
          <mxGeometry relative="1" as="geometry" />
        </mxCell>
        <mxCell id="zsuysDpaAxi5N6dCsfD_-30" value="Array inverter" style="swimlane;startSize=23;" vertex="1" parent="1">
          <mxGeometry x="540" y="290" width="350" height="410" as="geometry" />
        </mxCell>
        <mxCell id="zsuysDpaAxi5N6dCsfD_-31" value="" style="ellipse;html=1;shape=endState;fillColor=#000000;strokeColor=#ff0000;" vertex="1" parent="zsuysDpaAxi5N6dCsfD_-30">
          <mxGeometry x="85" y="370" width="30" height="30" as="geometry" />
        </mxCell>
        <mxCell id="zsuysDpaAxi5N6dCsfD_-32" style="edgeStyle=orthogonalEdgeStyle;rounded=0;orthogonalLoop=1;jettySize=auto;html=1;" edge="1" parent="zsuysDpaAxi5N6dCsfD_-30" source="zsuysDpaAxi5N6dCsfD_-33" target="zsuysDpaAxi5N6dCsfD_-35">
          <mxGeometry relative="1" as="geometry" />
        </mxCell>
        <mxCell id="zsuysDpaAxi5N6dCsfD_-33" value="" style="ellipse;html=1;shape=endState;fillColor=#000000;strokeColor=#ff0000;" vertex="1" parent="zsuysDpaAxi5N6dCsfD_-30">
          <mxGeometry x="85" y="30" width="30" height="30" as="geometry" />
        </mxCell>
        <mxCell id="zsuysDpaAxi5N6dCsfD_-34" style="edgeStyle=orthogonalEdgeStyle;rounded=0;orthogonalLoop=1;jettySize=auto;html=1;" edge="1" parent="zsuysDpaAxi5N6dCsfD_-30" source="zsuysDpaAxi5N6dCsfD_-35" target="zsuysDpaAxi5N6dCsfD_-38">
          <mxGeometry relative="1" as="geometry" />
        </mxCell>
        <mxCell id="zsuysDpaAxi5N6dCsfD_-35" value="N - array&lt;br&gt;temp = N&lt;br&gt;i = 0" style="rounded=0;whiteSpace=wrap;html=1;" vertex="1" parent="zsuysDpaAxi5N6dCsfD_-30">
          <mxGeometry x="40" y="80" width="120" height="60" as="geometry" />
        </mxCell>
        <mxCell id="zsuysDpaAxi5N6dCsfD_-36" value="Yes" style="edgeStyle=orthogonalEdgeStyle;rounded=0;orthogonalLoop=1;jettySize=auto;html=1;entryX=0.5;entryY=0;entryDx=0;entryDy=0;" edge="1" parent="zsuysDpaAxi5N6dCsfD_-30" source="zsuysDpaAxi5N6dCsfD_-38" target="zsuysDpaAxi5N6dCsfD_-40">
          <mxGeometry relative="1" as="geometry" />
        </mxCell>
        <mxCell id="zsuysDpaAxi5N6dCsfD_-37" value="No" style="edgeStyle=orthogonalEdgeStyle;rounded=0;orthogonalLoop=1;jettySize=auto;html=1;entryX=0;entryY=0.5;entryDx=0;entryDy=0;" edge="1" parent="zsuysDpaAxi5N6dCsfD_-30" source="zsuysDpaAxi5N6dCsfD_-38" target="zsuysDpaAxi5N6dCsfD_-45">
          <mxGeometry relative="1" as="geometry">
            <mxPoint x="199.99999999999955" y="207.5" as="targetPoint" />
          </mxGeometry>
        </mxCell>
        <mxCell id="zsuysDpaAxi5N6dCsfD_-38" value="i = lengh of N?" style="rhombus;whiteSpace=wrap;html=1;" vertex="1" parent="zsuysDpaAxi5N6dCsfD_-30">
          <mxGeometry x="30" y="165" width="140" height="80" as="geometry" />
        </mxCell>
        <mxCell id="zsuysDpaAxi5N6dCsfD_-39" style="edgeStyle=orthogonalEdgeStyle;rounded=0;orthogonalLoop=1;jettySize=auto;html=1;entryX=0.5;entryY=0;entryDx=0;entryDy=0;" edge="1" parent="zsuysDpaAxi5N6dCsfD_-30" source="zsuysDpaAxi5N6dCsfD_-40" target="zsuysDpaAxi5N6dCsfD_-31">
          <mxGeometry relative="1" as="geometry" />
        </mxCell>
        <mxCell id="zsuysDpaAxi5N6dCsfD_-40" value="inverted N array" style="rounded=0;whiteSpace=wrap;html=1;" vertex="1" parent="zsuysDpaAxi5N6dCsfD_-30">
          <mxGeometry x="40" y="290" width="120" height="60" as="geometry" />
        </mxCell>
        <mxCell id="zsuysDpaAxi5N6dCsfD_-50" style="edgeStyle=orthogonalEdgeStyle;rounded=0;orthogonalLoop=1;jettySize=auto;html=1;entryX=0.5;entryY=0;entryDx=0;entryDy=0;" edge="1" parent="zsuysDpaAxi5N6dCsfD_-30" source="zsuysDpaAxi5N6dCsfD_-45" target="zsuysDpaAxi5N6dCsfD_-38">
          <mxGeometry relative="1" as="geometry">
            <Array as="points">
              <mxPoint x="260" y="160" />
              <mxPoint x="100" y="160" />
            </Array>
          </mxGeometry>
        </mxCell>
        <mxCell id="zsuysDpaAxi5N6dCsfD_-45" value="i element of N =&lt;br&gt;(lengh of N - &lt;br&gt;i) element of Arr" style="rounded=0;whiteSpace=wrap;html=1;" vertex="1" parent="zsuysDpaAxi5N6dCsfD_-30">
          <mxGeometry x="210" y="175" width="120" height="60" as="geometry" />
        </mxCell>
        <mxCell id="zsuysDpaAxi5N6dCsfD_-48" style="edgeStyle=orthogonalEdgeStyle;rounded=0;orthogonalLoop=1;jettySize=auto;html=1;entryX=0;entryY=0.5;entryDx=0;entryDy=0;" edge="1" parent="1" target="zsuysDpaAxi5N6dCsfD_-28">
          <mxGeometry relative="1" as="geometry">
            <mxPoint x="330" y="340" as="targetPoint" />
            <mxPoint x="-110" y="620" as="sourcePoint" />
            <Array as="points">
              <mxPoint x="-110" y="650" />
              <mxPoint x="260" y="650" />
              <mxPoint x="260" y="220" />
            </Array>
          </mxGeometry>
        </mxCell>
        <mxCell id="zsuysDpaAxi5N6dCsfD_-54" style="edgeStyle=orthogonalEdgeStyle;rounded=0;orthogonalLoop=1;jettySize=auto;html=1;entryX=0.5;entryY=0;entryDx=0;entryDy=0;" edge="1" parent="1" source="zsuysDpaAxi5N6dCsfD_-52" target="zsuysDpaAxi5N6dCsfD_-55">
          <mxGeometry relative="1" as="geometry">
            <mxPoint x="440.00000000000045" y="450" as="targetPoint" />
          </mxGeometry>
        </mxCell>
        <mxCell id="zsuysDpaAxi5N6dCsfD_-52" value="inverted &lt;br&gt;N sequence" style="rounded=0;whiteSpace=wrap;html=1;" vertex="1" parent="1">
          <mxGeometry x="380" y="300" width="120" height="60" as="geometry" />
        </mxCell>
        <mxCell id="zsuysDpaAxi5N6dCsfD_-80" style="edgeStyle=orthogonalEdgeStyle;rounded=0;orthogonalLoop=1;jettySize=auto;html=1;entryX=0.5;entryY=0;entryDx=0;entryDy=0;" edge="1" parent="1" source="zsuysDpaAxi5N6dCsfD_-55" target="zsuysDpaAxi5N6dCsfD_-79">
          <mxGeometry relative="1" as="geometry" />
        </mxCell>
        <mxCell id="zsuysDpaAxi5N6dCsfD_-55" value="Trabb_Prado_Knutt" style="swimlane;startSize=23;" vertex="1" parent="1">
          <mxGeometry x="90" y="790" width="700" height="410" as="geometry" />
        </mxCell>
        <mxCell id="zsuysDpaAxi5N6dCsfD_-56" value="" style="ellipse;html=1;shape=endState;fillColor=#000000;strokeColor=#ff0000;" vertex="1" parent="zsuysDpaAxi5N6dCsfD_-55">
          <mxGeometry x="85" y="370" width="30" height="30" as="geometry" />
        </mxCell>
        <mxCell id="zsuysDpaAxi5N6dCsfD_-57" style="edgeStyle=orthogonalEdgeStyle;rounded=0;orthogonalLoop=1;jettySize=auto;html=1;" edge="1" parent="zsuysDpaAxi5N6dCsfD_-55" source="zsuysDpaAxi5N6dCsfD_-58" target="zsuysDpaAxi5N6dCsfD_-60">
          <mxGeometry relative="1" as="geometry" />
        </mxCell>
        <mxCell id="zsuysDpaAxi5N6dCsfD_-58" value="" style="ellipse;html=1;shape=endState;fillColor=#000000;strokeColor=#ff0000;" vertex="1" parent="zsuysDpaAxi5N6dCsfD_-55">
          <mxGeometry x="85" y="30" width="30" height="30" as="geometry" />
        </mxCell>
        <mxCell id="zsuysDpaAxi5N6dCsfD_-59" style="edgeStyle=orthogonalEdgeStyle;rounded=0;orthogonalLoop=1;jettySize=auto;html=1;" edge="1" parent="zsuysDpaAxi5N6dCsfD_-55" source="zsuysDpaAxi5N6dCsfD_-60" target="zsuysDpaAxi5N6dCsfD_-63">
          <mxGeometry relative="1" as="geometry" />
        </mxCell>
        <mxCell id="zsuysDpaAxi5N6dCsfD_-60" value="N - inverted sorted&lt;br&gt;i = 0" style="rounded=0;whiteSpace=wrap;html=1;" vertex="1" parent="zsuysDpaAxi5N6dCsfD_-55">
          <mxGeometry x="40" y="80" width="120" height="60" as="geometry" />
        </mxCell>
        <mxCell id="zsuysDpaAxi5N6dCsfD_-61" value="Yes" style="edgeStyle=orthogonalEdgeStyle;rounded=0;orthogonalLoop=1;jettySize=auto;html=1;entryX=0.5;entryY=0;entryDx=0;entryDy=0;" edge="1" parent="zsuysDpaAxi5N6dCsfD_-55" source="zsuysDpaAxi5N6dCsfD_-63" target="zsuysDpaAxi5N6dCsfD_-65">
          <mxGeometry relative="1" as="geometry" />
        </mxCell>
        <mxCell id="zsuysDpaAxi5N6dCsfD_-62" value="No" style="edgeStyle=orthogonalEdgeStyle;rounded=0;orthogonalLoop=1;jettySize=auto;html=1;entryX=0;entryY=0.5;entryDx=0;entryDy=0;" edge="1" parent="zsuysDpaAxi5N6dCsfD_-55" source="zsuysDpaAxi5N6dCsfD_-63" target="zsuysDpaAxi5N6dCsfD_-67">
          <mxGeometry relative="1" as="geometry">
            <mxPoint x="199.99999999999955" y="207.5" as="targetPoint" />
          </mxGeometry>
        </mxCell>
        <mxCell id="zsuysDpaAxi5N6dCsfD_-63" value="i = lengh of N?" style="rhombus;whiteSpace=wrap;html=1;" vertex="1" parent="zsuysDpaAxi5N6dCsfD_-55">
          <mxGeometry x="30" y="165" width="140" height="80" as="geometry" />
        </mxCell>
        <mxCell id="zsuysDpaAxi5N6dCsfD_-64" style="edgeStyle=orthogonalEdgeStyle;rounded=0;orthogonalLoop=1;jettySize=auto;html=1;entryX=0.5;entryY=0;entryDx=0;entryDy=0;" edge="1" parent="zsuysDpaAxi5N6dCsfD_-55" source="zsuysDpaAxi5N6dCsfD_-65" target="zsuysDpaAxi5N6dCsfD_-56">
          <mxGeometry relative="1" as="geometry" />
        </mxCell>
        <mxCell id="zsuysDpaAxi5N6dCsfD_-65" value="inverted N array" style="rounded=0;whiteSpace=wrap;html=1;" vertex="1" parent="zsuysDpaAxi5N6dCsfD_-55">
          <mxGeometry x="40" y="290" width="120" height="60" as="geometry" />
        </mxCell>
        <mxCell id="zsuysDpaAxi5N6dCsfD_-69" style="edgeStyle=orthogonalEdgeStyle;rounded=0;orthogonalLoop=1;jettySize=auto;html=1;entryX=0;entryY=0.5;entryDx=0;entryDy=0;" edge="1" parent="zsuysDpaAxi5N6dCsfD_-55" source="zsuysDpaAxi5N6dCsfD_-67" target="zsuysDpaAxi5N6dCsfD_-68">
          <mxGeometry relative="1" as="geometry" />
        </mxCell>
        <mxCell id="zsuysDpaAxi5N6dCsfD_-67" value="X = i element of N&lt;br&gt;score =&amp;nbsp;&lt;br&gt;sqrt(abs(X)) + 5 * X^2" style="rounded=0;whiteSpace=wrap;html=1;" vertex="1" parent="zsuysDpaAxi5N6dCsfD_-55">
          <mxGeometry x="210" y="175" width="120" height="60" as="geometry" />
        </mxCell>
        <mxCell id="zsuysDpaAxi5N6dCsfD_-71" value="Yes" style="edgeStyle=orthogonalEdgeStyle;rounded=0;orthogonalLoop=1;jettySize=auto;html=1;" edge="1" parent="zsuysDpaAxi5N6dCsfD_-55" source="zsuysDpaAxi5N6dCsfD_-68" target="zsuysDpaAxi5N6dCsfD_-70">
          <mxGeometry relative="1" as="geometry" />
        </mxCell>
        <mxCell id="zsuysDpaAxi5N6dCsfD_-76" value="No" style="edgeStyle=orthogonalEdgeStyle;rounded=0;orthogonalLoop=1;jettySize=auto;html=1;entryX=1;entryY=0.5;entryDx=0;entryDy=0;" edge="1" parent="zsuysDpaAxi5N6dCsfD_-55" source="zsuysDpaAxi5N6dCsfD_-68" target="zsuysDpaAxi5N6dCsfD_-75">
          <mxGeometry x="-0.7931" relative="1" as="geometry">
            <Array as="points">
              <mxPoint x="440" y="130" />
            </Array>
            <mxPoint as="offset" />
          </mxGeometry>
        </mxCell>
        <mxCell id="zsuysDpaAxi5N6dCsfD_-68" value="Score &amp;gt; 400?" style="rhombus;whiteSpace=wrap;html=1;" vertex="1" parent="zsuysDpaAxi5N6dCsfD_-55">
          <mxGeometry x="370" y="165" width="140" height="80" as="geometry" />
        </mxCell>
        <mxCell id="zsuysDpaAxi5N6dCsfD_-77" style="edgeStyle=orthogonalEdgeStyle;rounded=0;orthogonalLoop=1;jettySize=auto;html=1;entryX=1;entryY=0.5;entryDx=0;entryDy=0;" edge="1" parent="zsuysDpaAxi5N6dCsfD_-55" source="zsuysDpaAxi5N6dCsfD_-70" target="zsuysDpaAxi5N6dCsfD_-75">
          <mxGeometry relative="1" as="geometry">
            <Array as="points">
              <mxPoint x="540" y="310" />
              <mxPoint x="540" y="130" />
            </Array>
          </mxGeometry>
        </mxCell>
        <mxCell id="zsuysDpaAxi5N6dCsfD_-70" value="Inform the user" style="rounded=0;whiteSpace=wrap;html=1;" vertex="1" parent="zsuysDpaAxi5N6dCsfD_-55">
          <mxGeometry x="380" y="280" width="120" height="60" as="geometry" />
        </mxCell>
        <mxCell id="zsuysDpaAxi5N6dCsfD_-78" style="edgeStyle=orthogonalEdgeStyle;rounded=0;orthogonalLoop=1;jettySize=auto;html=1;entryX=0.5;entryY=0;entryDx=0;entryDy=0;" edge="1" parent="zsuysDpaAxi5N6dCsfD_-55" source="zsuysDpaAxi5N6dCsfD_-75" target="zsuysDpaAxi5N6dCsfD_-63">
          <mxGeometry relative="1" as="geometry">
            <Array as="points">
              <mxPoint x="100" y="150" />
            </Array>
          </mxGeometry>
        </mxCell>
        <mxCell id="zsuysDpaAxi5N6dCsfD_-75" value="i++" style="rounded=0;whiteSpace=wrap;html=1;" vertex="1" parent="zsuysDpaAxi5N6dCsfD_-55">
          <mxGeometry x="210" y="100" width="120" height="60" as="geometry" />
        </mxCell>
        <mxCell id="zsuysDpaAxi5N6dCsfD_-79" value="End" style="shape=document;whiteSpace=wrap;html=1;boundedLbl=1;" vertex="1" parent="1">
          <mxGeometry x="380" y="1275" width="120" height="80" as="geometry" />
        </mxCell>
      </root>
    </mxGraphModel>
  </diagram>
</mxfile>
